<svg xmlns="http://www.w3.org/2000/svg" xmlns:xlink="http://www.w3.org/1999/xlink" width="1200" height="900" viewBox="0 0 1200 900" xml:space="preserve">
<desc>Created with Fabric.js 4.2.0</desc>
<defs>
</defs>
<rect x="0" y="0" width="100%" height="100%" fill="transparent"></rect>
<g transform="matrix(1 0 0 1 600 450)" id="fc67d339-77f0-456c-bd31-a2dcefd1d7d9">
<rect style="stroke: none; stroke-width: 1; stroke-dasharray: none; stroke-linecap: butt; stroke-dashoffset: 0; stroke-linejoin: miter; stroke-miterlimit: 4; fill: rgb(255,255,255); fill-rule: nonzero; opacity: 1;" x="-600" y="-450" rx="0" ry="0" width="1200" height="900"></rect>
</g>
<g transform="matrix(Infinity NaN NaN Infinity 0 0)" id="8fcb0f8b-087b-46a6-aa04-9141fa55b760">
</g>
<g transform="matrix(0.65 0 0 0.65 600 450)">
<g style="">
		<g transform="matrix(1 0 0 1 0 0)" id="Rectangle_1">
<rect style="stroke: none; stroke-width: 1; stroke-dasharray: none; stroke-linecap: butt; stroke-dashoffset: 0; stroke-linejoin: miter; stroke-miterlimit: 4; fill: rgb(0,0,0); fill-opacity: 0; fill-rule: nonzero; opacity: 1;" x="-278.5" y="-278.5" rx="0" ry="0" width="557" height="557"></rect>
</g>
		<g transform="matrix(1 0 0 1 0 0)" id="Rectangle_2">
<rect style="stroke: none; stroke-width: 1; stroke-dasharray: none; stroke-linecap: butt; stroke-dashoffset: 0; stroke-linejoin: miter; stroke-miterlimit: 4; fill: none; fill-rule: nonzero; opacity: 1;" x="-278.5" y="-278.5" rx="0" ry="0" width="557" height="557"></rect>
</g>
		<g transform="matrix(1 0 0 1 50.3 -61.08)" id="Path_1">
<path style="stroke: none; stroke-width: 1; stroke-dasharray: none; stroke-linecap: butt; stroke-dashoffset: 0; stroke-linejoin: miter; stroke-miterlimit: 4; fill: rgb(0,0,0); fill-rule: nonzero; opacity: 1;" transform=" translate(-400.66, -233.61)" d="M 340.361 233.612 C 340.36265576241817 238.42060959528865 344.26039040471136 242.3183442375818 349.069 242.32 L 452.247 242.32 C 455.3580688090892 242.32000007825332 458.2328149715489 240.66026467178008 459.7883493986833 237.96600006322967 C 461.34388382581767 235.2717354546793 461.34388382581767 231.9522645453207 459.7883493986833 229.25799993677032 C 458.2328149715489 226.5637353282199 455.3580688090892 224.90399992174667 452.247 224.904 L 349.069 224.904 C 344.26039040471136 224.90565576241818 340.36265576241817 228.80339040471134 340.361 233.612 Z" stroke-linecap="round"></path>
</g>
		<g transform="matrix(1 0 0 1 -40.14 -61.08)" id="Path_2">
<path style="stroke: none; stroke-width: 1; stroke-dasharray: none; stroke-linecap: butt; stroke-dashoffset: 0; stroke-linejoin: miter; stroke-miterlimit: 4; fill: rgb(0,0,0); fill-rule: nonzero; opacity: 1;" transform=" translate(-268.23, -233.61)" d="M 274.485 224.9 L 261.975 224.9 C 257.1657044840116 224.90000012096917 253.2670002190341 228.79870448401158 253.2670002190341 233.608 C 253.2670002190341 238.41729551598843 257.1657044840116 242.31599987903084 261.975 242.316 L 274.485 242.316 C 277.5960688090892 242.31600007825332 280.4708149715489 240.6562646717801 282.0263493986833 237.96200006322968 C 283.58188382581767 235.2677354546793 283.58188382581767 231.9482645453207 282.0263493986833 229.25399993677033 C 280.4708149715489 226.55973532821992 277.59606880908916 224.89999992174666 274.485 224.9 Z" stroke-linecap="round"></path>
</g>
		<g transform="matrix(1 0 0 1 30.26 -20.22)" id="Path_3">
<path style="stroke: none; stroke-width: 1; stroke-dasharray: none; stroke-linecap: butt; stroke-dashoffset: 0; stroke-linejoin: miter; stroke-miterlimit: 4; fill: rgb(0,0,0); fill-rule: nonzero; opacity: 1;" transform=" translate(-380.67, -312.7)" d="M 349.069 303.99 C 344.2597044840116 303.99000012096917 340.36100021903405 307.8887044840116 340.36100021903405 312.69800000000004 C 340.3610002190341 317.50729551598846 344.2597044840116 321.40599987903084 349.069 321.406 L 412.269 321.406 C 415.3800688090892 321.4060000782533 418.2548149715489 319.7462646717801 419.8103493986833 317.0520000632297 C 421.36588382581766 314.3577354546793 421.36588382581766 311.0382645453207 419.8103493986833 308.34399993677033 C 418.2548149715489 305.6497353282199 415.38006880908915 303.9899999217467 412.269 303.99 Z" stroke-linecap="round"></path>
</g>
		<g transform="matrix(1 0 0 1 -40.14 -20.22)" id="Path_4">
<path style="stroke: none; stroke-width: 1; stroke-dasharray: none; stroke-linecap: butt; stroke-dashoffset: 0; stroke-linejoin: miter; stroke-miterlimit: 4; fill: rgb(0,0,0); fill-rule: nonzero; opacity: 1;" transform=" translate(-268.23, -312.7)" d="M 274.485 303.99 L 261.975 303.99 C 257.1657044840116 303.99000012096917 253.2670002190341 307.8887044840116 253.2670002190341 312.69800000000004 C 253.2670002190341 317.50729551598846 257.1657044840116 321.40599987903084 261.975 321.406 L 274.485 321.406 C 277.5960688090892 321.4060000782533 280.4708149715489 319.7462646717801 282.0263493986833 317.0520000632297 C 283.58188382581767 314.3577354546793 283.58188382581767 311.0382645453207 282.0263493986833 308.34399993677033 C 280.4708149715489 305.6497353282199 277.59606880908916 303.9899999217467 274.485 303.99 Z" stroke-linecap="round"></path>
</g>
		<g transform="matrix(1 0 0 1 50.3 20.65)" id="Path_5">
<path style="stroke: none; stroke-width: 1; stroke-dasharray: none; stroke-linecap: butt; stroke-dashoffset: 0; stroke-linejoin: miter; stroke-miterlimit: 4; fill: rgb(0,0,0); fill-rule: nonzero; opacity: 1;" transform=" translate(-400.66, -391.79)" d="M 452.247 383.079 L 349.069 383.079 C 344.2597044840116 383.07900012096917 340.36100021903405 386.9777044840116 340.36100021903405 391.78700000000003 C 340.3610002190341 396.59629551598846 344.2597044840116 400.49499987903084 349.069 400.495 L 452.247 400.495 C 455.3580688090892 400.4950000782533 458.2328149715489 398.8352646717801 459.7883493986833 396.1410000632297 C 461.34388382581767 393.4467354546793 461.34388382581767 390.1272645453207 459.7883493986833 387.43299993677033 C 458.2328149715489 384.7387353282199 455.3580688090892 383.0789999217467 452.247 383.079 Z" stroke-linecap="round"></path>
</g>
		<g transform="matrix(1 0 0 1 -40.14 20.65)" id="Path_6">
<path style="stroke: none; stroke-width: 1; stroke-dasharray: none; stroke-linecap: butt; stroke-dashoffset: 0; stroke-linejoin: miter; stroke-miterlimit: 4; fill: rgb(0,0,0); fill-rule: nonzero; opacity: 1;" transform=" translate(-268.23, -391.79)" d="M 274.485 383.079 L 261.975 383.079 C 257.1657044840116 383.07900012096917 253.2670002190341 386.9777044840116 253.2670002190341 391.78700000000003 C 253.2670002190341 396.59629551598846 257.1657044840116 400.49499987903084 261.975 400.495 L 274.485 400.495 C 277.5960688090892 400.4950000782533 280.4708149715489 398.8352646717801 282.0263493986833 396.1410000632297 C 283.58188382581767 393.4467354546793 283.58188382581767 390.1272645453207 282.0263493986833 387.43299993677033 C 280.4708149715489 384.7387353282199 277.59606880908916 383.0789999217467 274.485 383.079 Z" stroke-linecap="round"></path>
</g>
		<g transform="matrix(1 0 0 1 30.26 61.49)" id="Path_7">
<path style="stroke: none; stroke-width: 1; stroke-dasharray: none; stroke-linecap: butt; stroke-dashoffset: 0; stroke-linejoin: miter; stroke-miterlimit: 4; fill: rgb(0,0,0); fill-rule: nonzero; opacity: 1;" transform=" translate(-380.67, -470.86)" d="M 412.267 479.566 C 415.3780688090892 479.5660000782533 418.2528149715489 477.9062646717801 419.8083493986833 475.21200006322965 C 421.36388382581765 472.51773545467927 421.36388382581765 469.1982645453207 419.8083493986833 466.5039999367703 C 418.2528149715489 463.80973532821986 415.3780688090892 462.14999992174666 412.267 462.15 L 349.067 462.15 C 344.2577044840116 462.15000012096914 340.35900021903404 466.0487044840116 340.35900021903404 470.858 C 340.3590002190341 475.6672955159884 344.2577044840116 479.5659998790308 349.067 479.566 Z" stroke-linecap="round"></path>
</g>
		<g transform="matrix(1 0 0 1 -40.14 61.5)" id="Path_8">
<path style="stroke: none; stroke-width: 1; stroke-dasharray: none; stroke-linecap: butt; stroke-dashoffset: 0; stroke-linejoin: miter; stroke-miterlimit: 4; fill: rgb(0,0,0); fill-rule: nonzero; opacity: 1;" transform=" translate(-268.23, -470.86)" d="M 274.485 462.154 L 261.975 462.154 C 257.1657044840116 462.15400012096916 253.2670002190341 466.0527044840116 253.2670002190341 470.862 C 253.2670002190341 475.67129551598845 257.1657044840116 479.56999987903083 261.975 479.57 L 274.485 479.57 C 277.5960688090892 479.5700000782533 280.4708149715489 477.9102646717801 282.0263493986833 475.21600006322967 C 283.58188382581767 472.5217354546793 283.58188382581767 469.2022645453207 282.0263493986833 466.5079999367703 C 280.4708149715489 463.8137353282199 277.59606880908916 462.1539999217467 274.485 462.154 Z" stroke-linecap="round"></path>
</g>
		<g transform="matrix(1 0 0 1 -11.39 0.21)" id="Path_9">
<path style="stroke: none; stroke-width: 1; stroke-dasharray: none; stroke-linecap: butt; stroke-dashoffset: 0; stroke-linejoin: miter; stroke-miterlimit: 4; fill: rgb(0,0,0); fill-rule: nonzero; opacity: 1;" transform=" translate(-245.18, -229.42)" d="M 335.144 314.836 C 330.335618946756 314.8382071984453 326.43820719844524 318.735618946756 326.436 323.54400000000004 L 326.436 341.84400000000005 C 326.4310384650951 347.069870927157 322.19587092715693 351.3050384650952 316.96999999999997 351.31000000000006 L 173.376 351.31000000000006 C 168.15012907284307 351.3050384650952 163.91496153490485 347.069870927157 163.91 341.84400000000005 L 163.91 116.987 C 163.91496153490488 111.76112907284306 168.15012907284307 107.52596153490487 173.376 107.521 L 316.971 107.521 C 322.1968709271569 107.52596153490487 326.43203846509516 111.76112907284306 326.437 116.987 L 326.437 131.987 C 326.4370001209692 136.79629551598842 330.33570448401156 140.69499978096593 335.145 140.69499978096593 C 339.9542955159884 140.69499978096593 343.85299987903085 136.79629551598842 343.853 131.987 L 343.853 116.987 C 343.83701674339113 102.14876373359046 331.8122362664095 90.12398325660888 316.974 90.10799999999999 L 173.374 90.10799999999999 C 158.53771639198453 90.12673801606866 146.5159779310087 102.15071316277437 146.5 116.98700000000001 L 146.5 341.846 C 146.5159832566089 356.6842362664095 158.54076373359044 368.7090167433911 173.37899999999996 368.725 L 316.971 368.725 C 331.8092362664096 368.70901674339115 343.83401674339115 356.6842362664095 343.85 341.846 L 343.85 323.546 C 343.8505304938973 321.2364947878175 342.9335918553901 319.0213701652252 341.3009001314202 317.38792829573543 C 339.6682084074503 315.7544864262457 337.45350521221053 314.8365303720707 335.144 314.836 Z" stroke-linecap="round"></path>
</g>
</g>
</g>
</svg>