<svg xmlns="http://www.w3.org/2000/svg" xmlns:xlink="http://www.w3.org/1999/xlink" width="1080" height="1080" viewBox="0 0 1080 1080" xml:space="preserve">
<desc>Created with Fabric.js 4.2.0</desc>
<defs>
</defs>
<rect x="0" y="0" width="100%" height="100%" fill="transparent"></rect>
<g transform="matrix(1 0 0 1 540 540)" id="a34d18e2-615d-44be-a710-7066a6218d33">
<rect style="stroke: none; stroke-width: 1; stroke-dasharray: none; stroke-linecap: butt; stroke-dashoffset: 0; stroke-linejoin: miter; stroke-miterlimit: 4; fill: rgb(255,255,255); fill-rule: nonzero; opacity: 1;" x="-540" y="-540" rx="0" ry="0" width="1080" height="1080"></rect>
</g>
<g transform="matrix(1 0 0 1 540 540)" id="aedd19e1-fd3f-4343-b7be-89e8e49c8be0">
</g>
<g transform="matrix(2.71 0 0 2.71 540 540)">
<g style="">
		<g transform="matrix(1.33 0 0 1.33 35.86 -43.88)">
<path style="stroke: none; stroke-width: 1; stroke-dasharray: none; stroke-linecap: butt; stroke-dashoffset: 0; stroke-linejoin: miter; stroke-miterlimit: 4; fill: rgb(0,0,0); fill-rule: nonzero; opacity: 1;" transform=" translate(-126.89, -67.09)" d="M 94.432 67.087 C 94.4331036682873 69.67565361501373 96.53134638498628 71.7738963317127 99.12 71.775 L 154.668 71.775 C 157.256 71.775 159.356 69.67500000000001 159.356 67.087 C 159.356 64.499 157.256 62.399 154.668 62.399 L 99.12 62.399 C 96.53134638498628 62.40010366828731 94.4331036682873 64.49834638498628 94.432 67.087 z" stroke-linecap="round"></path>
</g>
		<g transform="matrix(1.33 0 0 1.33 -28.9 -43.88)">
<path style="stroke: none; stroke-width: 1; stroke-dasharray: none; stroke-linecap: butt; stroke-dashoffset: 0; stroke-linejoin: miter; stroke-miterlimit: 4; fill: rgb(0,0,0); fill-rule: nonzero; opacity: 1;" transform=" translate(-78.32, -67.09)" d="M 81.691 62.399 L 74.956 62.399 C 72.36800000000001 62.399 70.268 64.499 70.268 67.087 C 70.268 69.67500000000001 72.368 71.775 74.956 71.775 L 81.691 71.775 C 84.279 71.775 86.379 69.67500000000001 86.379 67.087 C 86.379 64.499 84.27900000000001 62.399 81.691 62.399 z" stroke-linecap="round"></path>
</g>
		<g transform="matrix(1.33 0 0 1.33 21.51 -14.63)">
<path style="stroke: none; stroke-width: 1; stroke-dasharray: none; stroke-linecap: butt; stroke-dashoffset: 0; stroke-linejoin: miter; stroke-miterlimit: 4; fill: rgb(0,0,0); fill-rule: nonzero; opacity: 1;" transform=" translate(-116.13, -89.03)" d="M 99.12 84.341 C 96.53200000000001 84.341 94.432 86.44099999999999 94.432 89.029 C 94.432 91.617 96.532 93.717 99.12 93.717 L 133.144 93.717 C 135.732 93.717 137.832 91.617 137.832 89.029 C 137.832 86.44099999999999 135.732 84.341 133.144 84.341 L 99.12 84.341 z" stroke-linecap="round"></path>
</g>
		<g transform="matrix(1.33 0 0 1.33 -28.9 -14.63)">
<path style="stroke: none; stroke-width: 1; stroke-dasharray: none; stroke-linecap: butt; stroke-dashoffset: 0; stroke-linejoin: miter; stroke-miterlimit: 4; fill: rgb(0,0,0); fill-rule: nonzero; opacity: 1;" transform=" translate(-78.32, -89.03)" d="M 81.691 84.341 L 74.956 84.341 C 72.36800000000001 84.341 70.268 86.44099999999999 70.268 89.029 C 70.268 91.617 72.368 93.717 74.956 93.717 L 81.691 93.717 C 84.279 93.717 86.379 91.617 86.379 89.029 C 86.379 86.44099999999999 84.27900000000001 84.341 81.691 84.341 z" stroke-linecap="round"></path>
</g>
		<g transform="matrix(1.33 0 0 1.33 35.86 14.63)">
<path style="stroke: none; stroke-width: 1; stroke-dasharray: none; stroke-linecap: butt; stroke-dashoffset: 0; stroke-linejoin: miter; stroke-miterlimit: 4; fill: rgb(0,0,0); fill-rule: nonzero; opacity: 1;" transform=" translate(-126.89, -110.97)" d="M 154.668 106.284 L 99.12 106.284 C 96.53200000000001 106.284 94.432 108.384 94.432 110.97200000000001 C 94.432 113.56000000000002 96.532 115.66000000000001 99.12 115.66000000000001 L 154.668 115.66000000000001 C 157.256 115.66000000000001 159.356 113.56000000000002 159.356 110.97200000000001 C 159.356 108.384 157.256 106.284 154.668 106.284 z" stroke-linecap="round"></path>
</g>
		<g transform="matrix(1.33 0 0 1.33 -28.9 14.63)">
<path style="stroke: none; stroke-width: 1; stroke-dasharray: none; stroke-linecap: butt; stroke-dashoffset: 0; stroke-linejoin: miter; stroke-miterlimit: 4; fill: rgb(0,0,0); fill-rule: nonzero; opacity: 1;" transform=" translate(-78.32, -110.97)" d="M 81.691 106.284 L 74.956 106.284 C 72.36800000000001 106.284 70.268 108.384 70.268 110.97200000000001 C 70.268 113.56000000000002 72.368 115.66000000000001 74.956 115.66000000000001 L 81.691 115.66000000000001 C 84.279 115.66000000000001 86.379 113.56000000000002 86.379 110.97200000000001 C 86.379 108.384 84.27900000000001 106.284 81.691 106.284 z" stroke-linecap="round"></path>
</g>
		<g transform="matrix(1.33 0 0 1.33 21.51 43.88)">
<path style="stroke: none; stroke-width: 1; stroke-dasharray: none; stroke-linecap: butt; stroke-dashoffset: 0; stroke-linejoin: miter; stroke-miterlimit: 4; fill: rgb(0,0,0); fill-rule: nonzero; opacity: 1;" transform=" translate(-116.13, -132.91)" d="M 133.144 137.598 C 135.732 137.598 137.832 135.49800000000002 137.832 132.91000000000003 C 137.832 130.32200000000003 135.732 128.22200000000004 133.144 128.22200000000004 L 99.12 128.22200000000004 C 96.53200000000001 128.22200000000004 94.432 130.32200000000003 94.432 132.91000000000003 C 94.432 135.49800000000002 96.532 137.598 99.12 137.598 L 133.144 137.598 z" stroke-linecap="round"></path>
</g>
		<g transform="matrix(1.33 0 0 1.33 -28.9 43.88)">
<path style="stroke: none; stroke-width: 1; stroke-dasharray: none; stroke-linecap: butt; stroke-dashoffset: 0; stroke-linejoin: miter; stroke-miterlimit: 4; fill: rgb(0,0,0); fill-rule: nonzero; opacity: 1;" transform=" translate(-78.32, -132.91)" d="M 81.691 128.223 L 74.956 128.223 C 72.36800000000001 128.223 70.268 130.323 70.268 132.911 C 70.268 135.499 72.368 137.599 74.956 137.599 L 81.691 137.599 C 84.279 137.599 86.379 135.499 86.379 132.911 C 86.379 130.323 84.27900000000001 128.223 81.691 128.223 z" stroke-linecap="round"></path>
</g>
		<g transform="matrix(1.33 0 0 1.33 -8.31 0)">
<path style="stroke: none; stroke-width: 1; stroke-dasharray: none; stroke-linecap: butt; stroke-dashoffset: 0; stroke-linejoin: miter; stroke-miterlimit: 4; fill: rgb(0,0,0); fill-rule: nonzero; opacity: 1;" transform=" translate(-93.77, -100)" d="M 142.207 145.987 C 139.61834638498627 145.9881036682873 137.5201036682873 148.08634638498626 137.519 150.67499999999998 L 137.519 160.529 C 137.5162437516965 163.34230061879424 135.23630061879425 165.6222437516965 132.423 165.625 L 55.116 165.625 C 52.30269938120574 165.6222437516965 50.02275624830351 163.34230061879424 50.019999999999996 160.529 L 50.019999999999996 39.471 C 50.02275624830351 36.657699381205745 52.30269938120574 34.37775624830351 55.116 34.375 L 132.423 34.375 C 135.23630061879425 34.37775624830351 137.5162437516965 36.657699381205745 137.519 39.471000000000004 L 137.519 47.54900000000001 C 137.519 50.13700000000001 139.619 52.23700000000001 142.207 52.23700000000001 C 144.795 52.23700000000001 146.89499999999998 50.13700000000001 146.89499999999998 47.54900000000001 L 146.89499999999998 39.471000000000004 C 146.89499999999998 31.491000000000003 140.404 25.000000000000004 132.42399999999998 25.000000000000004 L 55.116 25.000000000000004 C 47.135999999999996 25.000000000000004 40.644999999999996 31.491000000000003 40.644999999999996 39.471000000000004 L 40.644999999999996 160.52800000000002 C 40.644999999999996 168.508 47.135999999999996 174.99900000000002 55.116 174.99900000000002 L 132.423 174.99900000000002 C 140.403 174.99900000000002 146.894 168.50800000000004 146.894 160.52800000000002 L 146.894 150.67400000000004 C 146.89344794070476 148.0856700824779 144.79532991752214 145.98755205929527 142.207 145.98700000000002 z" stroke-linecap="round"></path>
</g>
</g>
</g>
</svg>