<svg xmlns="http://www.w3.org/2000/svg" xmlns:xlink="http://www.w3.org/1999/xlink" width="1080" height="1080" viewBox="0 0 1080 1080" xml:space="preserve">
<desc>Created with Fabric.js 4.2.0</desc>
<defs>
</defs>
<rect x="0" y="0" width="100%" height="100%" fill="transparent"></rect>
<g transform="matrix(1 0 0 1 540 540)" id="358708b5-f0f4-4b4b-8bd4-a16d131bd799">
<rect style="stroke: none; stroke-width: 1; stroke-dasharray: none; stroke-linecap: butt; stroke-dashoffset: 0; stroke-linejoin: miter; stroke-miterlimit: 4; fill: rgb(255,255,255); fill-rule: nonzero; opacity: 1;" x="-540" y="-540" rx="0" ry="0" width="1080" height="1080"></rect>
</g>
<g transform="matrix(1 0 0 1 540 540)" id="444bf772-7769-42c5-aaf2-820cfe0dd734">
</g>
<g transform="matrix(2.28 0 0 2.28 518.56 485.59)">
<g style="">
		<g transform="matrix(1.45 0 0 1.45 59.08 65.67)">
<path style="stroke: none; stroke-width: 1; stroke-dasharray: none; stroke-linecap: butt; stroke-dashoffset: 0; stroke-linejoin: miter; stroke-miterlimit: 4; fill: rgb(0,0,0); fill-rule: nonzero; opacity: 1;" transform=" translate(-140.64, -145.18)" d="M 131.493 136.065 C 126.44699999999999 141.091 126.44699999999999 149.269 131.493 154.295 C 133.9217659624774 156.71624857251769 137.21352597107904 158.07252564709998 140.643 158.065 C 144.07247402892096 158.07252564709998 147.3642340375226 156.71624857251766 149.793 154.295 C 154.839 149.26899999999998 154.839 141.09099999999998 149.793 136.065 C 144.749 131.037 136.537 131.037 131.493 136.065 z M 146.268 150.783 C 143.165 153.87099999999998 138.121 153.87099999999998 135.018 150.783 C 133.52902397450248 149.29836588289194 132.69215998965487 147.28216213790697 132.69215998965487 145.1795 C 132.69215998965487 143.07683786209302 133.52902397450248 141.06063411710804 135.018 139.576 C 136.51171580939547 138.0885374225351 138.53498746288193 137.2551293476679 140.643 137.259 C 142.75103416597648 137.25501951348872 144.77434619503032 138.0884442195008 146.268 139.576 C 147.75697602549752 141.06063411710804 148.59384001034513 143.07683786209302 148.59384001034513 145.1795 C 148.59384001034513 147.28216213790697 147.75697602549752 149.29836588289194 146.268 150.783 z" stroke-linecap="round"></path>
</g>
		<g transform="matrix(1.45 0 0 1.45 0 0)">
<path style="stroke: none; stroke-width: 1; stroke-dasharray: none; stroke-linecap: butt; stroke-dashoffset: 0; stroke-linejoin: miter; stroke-miterlimit: 4; fill: rgb(0,0,0); fill-rule: nonzero; opacity: 1;" transform=" translate(-100, -100)" d="M 131.496 123.408 C 130.60000000000002 123.778 129.67000000000002 123.634 129.06300000000002 123.03 L 117.03200000000001 111.045 C 116.436 110.45 116.43 109.59 116.48 109.131 C 116.74300000000001 106.723 116.27600000000001 104.216 115.129 101.678 C 117.089 101.238 118.85900000000001 100.312 120.266 98.91 L 157.75400000000002 61.565999999999995 C 165.52540111060256 53.84555152112876 167.04130201136934 41.82515017280131 161.43 32.41699999999998 C 161.03614673770718 31.756522055964425 160.3592173657962 31.315078474282018 159.596 31.220999999999993 C 158.83294857622352 31.12328418247148 158.06769896942822 31.38476908672392 157.524 31.92899999999999 L 105.275 83.97699999999999 C 103.96600000000001 85.28099999999999 103.066 86.898 102.58800000000001 88.68599999999999 C 100.25300000000001 87.487 97.914 86.83099999999999 95.65400000000001 86.75999999999999 C 95.13207779736541 85.3641549560736 94.31516111348425 84.09733718407584 93.25900000000001 83.04599999999999 L 42.47400000000002 32.45599999999999 C 41.9285966842255 31.914372132071964 41.16442759189208 31.653621863065393 40.40170245135919 31.748889298074364 C 39.638977310826306 31.84415673308333 38.96242248505981 32.28485920890658 38.56700000000002 32.94399999999999 C 32.95569798863068 42.352150172801316 34.471598889397484 54.37255152112876 42.24300000000002 62.09299999999999 L 78.26700000000002 97.97899999999998 C 79.3235531324142 99.03325734209466 80.59515880998285 99.84711226341408 81.99500000000002 100.36499999999998 C 82.08200000000002 103.08599999999998 83.03300000000002 105.92199999999998 84.76200000000001 108.72799999999998 L 70.93500000000002 122.50199999999998 C 70.32800000000002 123.10699999999999 69.39600000000002 123.25099999999998 68.50200000000001 122.87999999999998 C 59.58600000000001 119.15999999999998 49.41600000000001 121.14999999999998 42.59000000000001 127.94999999999999 C 37.82566150070757 132.69565851532727 35.312269846640504 139.24852055972008 35.68100000000001 145.963 C 36.05300000000001 152.661 39.30700000000001 158.927 44.60900000000001 163.152 C 48.89500000000001 166.56799999999998 54.12100000000001 168.272 59.34800000000001 168.272 C 64.68700000000001 168.272 70.03000000000002 166.492 74.36500000000001 162.94 C 82.584 156.208 85.31300000000002 145.147 81.159 135.417 C 80.813 134.607 80.94300000000001 133.761 81.498 133.209 L 95.662 119.098 C 98.655 120.711 101.622 121.42099999999999 104.45100000000001 121.11 C 104.917 121.06099999999999 105.777 121.065 106.37400000000001 121.66 L 118.49700000000001 133.737 C 119.04400000000001 134.28199999999998 119.17700000000002 135.148 118.83500000000001 135.945 C 114.682 145.67399999999998 117.41300000000001 156.736 125.63000000000001 163.468 C 129.966 167.01999999999998 135.306 168.79999999999998 140.64700000000002 168.79999999999998 C 145.87400000000002 168.79999999999998 151.10200000000003 167.09599999999998 155.38600000000002 163.67999999999998 C 160.68800000000002 159.456 163.94200000000004 153.18899999999996 164.31400000000002 146.49099999999999 C 164.68273015335953 139.77652055972004 162.16933849929248 133.22365851532726 157.40500000000003 128.47799999999998 C 150.58300000000003 121.67799999999998 140.40900000000002 119.69299999999998 131.49600000000004 123.40799999999999 z M 107.24300000000001 90.631 C 107.40655386244605 89.44173011576362 107.95354964983989 88.3382591531328 108.80100000000002 87.488 L 158.57500000000002 37.905 C 161.2334240116414 44.89000159905124 159.53084123491328 52.78536186793372 154.23000000000002 58.054 L 116.74200000000002 95.398 C 115.90300000000002 96.234 114.81100000000002 96.771 113.58700000000002 96.948 C 113.20791066553608 97.00591534238194 112.84744587990157 97.15105975749023 112.53400000000002 97.372 C 111.57807614897605 96.10061335562152 110.53169466469643 94.89983128183783 109.403 93.77899999999998 C 108.61023416022647 92.99583240501924 107.77780651597584 92.25385700278623 106.90900000000003 91.55600000000001 C 107.07700000000003 91.282 107.19300000000003 90.97 107.24300000000002 90.631 z M 77.97500000000001 129.698 C 75.98400000000001 131.68200000000002 75.43400000000001 134.69 76.57400000000001 137.36100000000002 C 79.85400000000001 145.04500000000002 77.69400000000002 153.78300000000002 71.19900000000001 159.10600000000002 C 64.543 164.55900000000003 54.45000000000002 164.63400000000001 47.72700000000001 159.276 C 43.46800000000001 155.883 40.95900000000001 151.05700000000002 40.66100000000001 145.68900000000002 C 40.36978651265799 140.38594738355363 42.354554607054105 135.2104899643869 46.117000000000004 131.46200000000002 C 51.503000000000014 126.09600000000002 59.53200000000001 124.52500000000002 66.58000000000001 127.46200000000002 C 69.33100000000002 128.60700000000003 72.427 128.04100000000003 74.46100000000001 126.01300000000002 L 87.79600000000002 112.72900000000001 C 88.19700000000002 113.174 88.60300000000002 113.62000000000002 89.04400000000003 114.05900000000001 C 89.81971476088681 114.82590217278978 90.63093763962968 115.55603613358345 91.47500000000004 116.24700000000003 L 77.97500000000002 129.698 z M 159.339 146.216 C 159.04 151.583 156.531 156.40900000000002 152.273 159.803 C 145.549 165.159 135.458 165.08599999999998 128.801 159.633 C 122.30599999999998 154.311 120.14599999999999 145.573 123.42599999999999 137.89000000000001 C 124.56899999999999 135.21900000000002 124.01799999999999 132.211 122.02499999999999 130.22500000000002 L 109.90199999999999 118.14800000000002 C 108.58899999999998 116.84000000000002 106.76699999999998 116.12400000000002 104.80099999999999 116.12400000000002 C 104.50565418043682 116.12398250040654 104.21053456234362 116.14034094077597 103.91699999999999 116.17300000000003 C 100.606 116.53200000000002 96.57199999999999 114.53200000000002 92.57099999999998 110.54800000000003 C 88.49399999999999 106.48700000000002 86.53499999999998 102.32900000000004 87.05599999999998 98.84200000000003 C 87.15313918654483 98.18943857174078 86.9861483588581 97.52507420124573 86.59199999999998 96.99600000000002 C 86.1961906519953 96.46579283689124 85.60584397124379 96.1146786623553 84.95099999999998 96.02000000000002 C 83.72699999999998 95.84200000000003 82.63499999999998 95.30500000000002 81.79399999999998 94.46800000000002 L 45.77 58.581 C 40.46915876508672 53.312361867933724 38.766575988358625 45.41700159905124 41.425000000000004 38.431999999999995 L 89.73500000000001 86.55600000000001 C 90.57600000000001 87.39300000000001 91.11400000000002 88.48200000000001 91.29300000000002 89.70000000000002 C 91.38901075348784 90.35451617547184 91.74192741436273 90.94377487854128 92.27363332514867 91.33734610865709 C 92.8053392359346 91.7309173387729 93.47198093047967 91.89634055286396 94.12600000000002 91.79700000000001 C 97.61000000000001 91.281 101.79900000000002 93.22800000000001 105.87800000000001 97.29100000000001 C 109.87900000000002 101.27600000000001 111.88400000000001 105.29 111.52400000000002 108.59500000000001 C 111.27600000000001 110.88100000000001 111.99800000000002 113.05400000000002 113.50700000000002 114.55600000000001 L 125.53800000000003 126.54100000000001 C 127.57000000000002 128.567 130.663 129.13600000000002 133.41900000000004 127.99000000000001 L 133.42100000000005 127.99000000000001 C 140.46400000000006 125.05100000000002 148.49600000000004 126.62400000000001 153.88300000000004 131.99 C 157.64550615100887 135.73803964705002 159.6303105322762 140.91322790363162 159.33900000000003 146.216 z" stroke-linecap="round"></path>
</g>
		<g transform="matrix(1.45 0 0 1.45 -59.07 64.9)">
<path style="stroke: none; stroke-width: 1; stroke-dasharray: none; stroke-linecap: butt; stroke-dashoffset: 0; stroke-linejoin: miter; stroke-miterlimit: 4; fill: rgb(0,0,0); fill-rule: nonzero; opacity: 1;" transform=" translate(-59.36, -144.65)" d="M 50.207 135.536 C 45.161 140.562 45.161 148.74 50.207 153.766 C 52.63576596247741 156.18724857251766 55.92752597107902 157.54352564709998 59.35699999999999 157.536 C 62.78647402892098 157.54352564709998 66.07823403752259 156.18724857251766 68.507 153.766 C 73.55300000000001 148.73999999999998 73.55300000000001 140.56199999999998 68.507 135.536 C 63.46300000000001 130.508 55.251000000000005 130.508 50.20700000000001 135.536 z M 64.982 150.255 C 61.879 153.343 56.835 153.343 53.732 150.255 C 52.24302397450249 148.77036588289195 51.40615998965485 146.75416213790697 51.40615998965485 144.6515 C 51.40615998965485 142.54883786209302 52.24302397450249 140.53263411710805 53.732 139.048 C 55.22571580939547 137.5605374225351 57.24898746288192 136.7271293476679 59.357 136.731 C 61.46503416597648 136.72701951348873 63.48834619503032 137.5604442195008 64.982 139.048 C 66.4709760254975 140.53263411710805 67.30784001034515 142.54883786209302 67.30784001034515 144.6515 C 67.30784001034515 146.75416213790697 66.4709760254975 148.77036588289195 64.982 150.255 z" stroke-linecap="round"></path>
</g>
		<g transform="matrix(1.45 0 0 1.45 -0.96 5.86)">
<path style="stroke: none; stroke-width: 1; stroke-dasharray: none; stroke-linecap: butt; stroke-dashoffset: 0; stroke-linejoin: miter; stroke-miterlimit: 4; fill: rgb(0,0,0); fill-rule: nonzero; opacity: 1;" transform=" translate(-99.34, -104.03)" d="M 98.853 101.608 C 98.6922022975376 101.62716630537439 98.53553447073851 101.67207324710775 98.389 101.741 C 98.238 101.807 98.089 101.874 97.95599999999999 101.974 C 97.81779127951509 102.0577146550428 97.68991220589797 102.15739991715378 97.57499999999999 102.271 C 97.10987754785796 102.73668421961499 96.84689695440241 103.36683170721206 96.84299999999999 104.025 C 96.84299999999999 104.70400000000001 97.109 105.31700000000001 97.57499999999999 105.781 C 97.80699999999999 106.028 98.08899999999998 106.21100000000001 98.38999999999999 106.32700000000001 C 98.689 106.46000000000001 99.00299999999999 106.50800000000001 99.33599999999998 106.50800000000001 C 99.66899999999998 106.50800000000001 100.00099999999999 106.46000000000001 100.29999999999998 106.32700000000001 C 100.60367866246892 106.20733288685817 100.87644932625261 106.02070032742722 101.09799999999998 105.781 C 101.57999999999998 105.31700000000001 101.82799999999999 104.70400000000001 101.82799999999999 104.025 C 101.82388309071605 103.36726913017404 101.56175138924411 102.73743487759624 101.09799999999998 102.271 C 100.50252347989617 101.69718662320165 99.66467169625348 101.449749771284 98.85299999999998 101.608 z" stroke-linecap="round"></path>
</g>
</g>
</g>
</svg>