<svg xmlns="http://www.w3.org/2000/svg" preserveAspectRatio="xMidYMid meet" data-bbox="35.199 31.201 129.599 137.599" viewBox="35.199 31.201 129.599 137.599" height="200" width="200" data-type="color" aria-hidden="true"><defs><style>#comp-kjvcf7o1 svg [data-color="1"] {fill: #404041;}</style></defs><g><path d="M131.493 136.065c-5.046 5.026-5.046 13.204 0 18.23a12.92 12.92 0 0 0 9.15 3.77 12.92 12.92 0 0 0 9.15-3.77c5.046-5.026 5.046-13.204 0-18.23-5.044-5.028-13.256-5.028-18.3 0zm14.775 14.718c-3.103 3.088-8.147 3.088-11.25 0a7.913 7.913 0 0 1 0-11.207 7.951 7.951 0 0 1 5.625-2.317 7.95 7.95 0 0 1 5.625 2.317 7.913 7.913 0 0 1 0 11.207z" fill="#00000" data-color="1"></path><path d="M131.496 123.408c-.896.37-1.826.226-2.433-.378l-12.031-11.985c-.596-.595-.602-1.455-.552-1.914.263-2.408-.204-4.915-1.351-7.453 1.96-.44 3.73-1.366 5.137-2.768l37.488-37.344a23.86 23.86 0 0 0 3.676-29.149 2.49 2.49 0 0 0-1.834-1.196 2.483 2.483 0 0 0-2.072.708l-52.249 52.048c-1.309 1.304-2.209 2.921-2.687 4.709-2.335-1.199-4.674-1.855-6.934-1.926a10.36 10.36 0 0 0-2.395-3.714l-50.785-50.59a2.501 2.501 0 0 0-3.907.488 23.86 23.86 0 0 0 3.676 29.149l36.024 35.886a10.374 10.374 0 0 0 3.728 2.386c.087 2.721 1.038 5.557 2.767 8.363l-13.827 13.774c-.607.605-1.539.749-2.433.378-8.916-3.72-19.086-1.73-25.912 5.07a23.598 23.598 0 0 0-6.909 18.013c.372 6.698 3.626 12.964 8.928 17.189 4.286 3.416 9.512 5.12 14.739 5.12 5.339 0 10.682-1.78 15.017-5.332 8.219-6.732 10.948-17.793 6.794-27.523-.346-.81-.216-1.656.339-2.208l14.164-14.111c2.993 1.613 5.96 2.323 8.789 2.012.466-.049 1.326-.045 1.923.55l12.123 12.077c.547.545.68 1.411.338 2.208-4.153 9.729-1.422 20.791 6.795 27.523 4.336 3.552 9.676 5.332 15.017 5.332 5.227 0 10.455-1.704 14.739-5.12 5.302-4.224 8.556-10.491 8.928-17.189a23.598 23.598 0 0 0-6.909-18.013c-6.822-6.8-16.996-8.785-25.909-5.07zm-24.253-32.777a5.517 5.517 0 0 1 1.558-3.143l49.774-49.583a18.92 18.92 0 0 1-4.345 20.149l-37.488 37.344c-.839.836-1.931 1.373-3.155 1.55a2.477 2.477 0 0 0-1.053.424 33.08 33.08 0 0 0-3.131-3.593 32.578 32.578 0 0 0-2.494-2.223c.168-.274.284-.586.334-.925zm-29.268 39.067c-1.991 1.984-2.541 4.992-1.401 7.663 3.28 7.684 1.12 16.422-5.375 21.745-6.656 5.453-16.749 5.528-23.472.17-4.259-3.393-6.768-8.219-7.066-13.587a18.64 18.64 0 0 1 5.456-14.227c5.386-5.366 13.415-6.937 20.463-4 2.751 1.145 5.847.579 7.881-1.449l13.335-13.284c.401.445.807.891 1.248 1.33a34.92 34.92 0 0 0 2.431 2.188l-13.5 13.451zm81.364 16.518c-.299 5.367-2.808 10.193-7.066 13.587-6.724 5.356-16.815 5.283-23.472-.17-6.495-5.322-8.655-14.06-5.375-21.743 1.143-2.671.592-5.679-1.401-7.665l-12.123-12.077c-1.313-1.308-3.135-2.024-5.101-2.024a7.99 7.99 0 0 0-.884.049c-3.311.359-7.345-1.641-11.346-5.625-4.077-4.061-6.036-8.219-5.515-11.706a2.479 2.479 0 0 0-.464-1.846 2.493 2.493 0 0 0-1.641-.976c-1.224-.178-2.316-.715-3.157-1.552L45.77 58.581a18.92 18.92 0 0 1-4.345-20.149l48.31 48.124c.841.837 1.379 1.926 1.558 3.144a2.486 2.486 0 0 0 2.833 2.097c3.484-.516 7.673 1.431 11.752 5.494 4.001 3.985 6.006 7.999 5.646 11.304-.248 2.286.474 4.459 1.983 5.961l12.031 11.985c2.032 2.026 5.125 2.595 7.881 1.449h.002c7.043-2.939 15.075-1.366 20.462 4a18.637 18.637 0 0 1 5.456 14.226z" fill="#00000" data-color="1"></path><path d="M50.207 135.536c-5.046 5.026-5.046 13.204 0 18.23a12.92 12.92 0 0 0 9.15 3.77 12.92 12.92 0 0 0 9.15-3.77c5.046-5.026 5.046-13.204 0-18.23-5.044-5.028-13.256-5.028-18.3 0zm14.775 14.719c-3.103 3.088-8.147 3.088-11.25 0a7.913 7.913 0 0 1 0-11.207 7.951 7.951 0 0 1 5.625-2.317 7.95 7.95 0 0 1 5.625 2.317 7.913 7.913 0 0 1 0 11.207z" fill="#00000" data-color="1"></path><path d="M98.853 101.608a1.51 1.51 0 0 0-.464.133c-.151.066-.3.133-.433.233a2.06 2.06 0 0 0-.381.297 2.503 2.503 0 0 0-.732 1.754c0 .679.266 1.292.732 1.756.232.247.514.43.815.546.299.133.613.181.946.181.333 0 .665-.048.964-.181a2.17 2.17 0 0 0 .798-.546c.482-.464.73-1.077.73-1.756a2.51 2.51 0 0 0-.73-1.754 2.536 2.536 0 0 0-2.245-.663z" fill="#00000" data-color="1"></path></g></svg>